<?xml version="1.0" encoding="UTF-8"?>
<svg width="24px" height="24px" viewBox="0 0 24 24" version="1.1" xmlns="http://www.w3.org/2000/svg" xmlns:xlink="http://www.w3.org/1999/xlink">
    <!-- Generator: Sketch 53.2 (72643) - https://sketchapp.com -->
    <title>ic_profile_off</title>
    <desc>Created with Sketch.</desc>
    <g id="ic_profile_off" stroke="none" stroke-width="1" fill="none" fill-rule="evenodd">
        <rect id="Rectangle" x="0" y="0" width="24" height="24"></rect>
        <g id="Group-7" transform="translate(2.000000, 2.000000)" fill="#CCCCCC">
            <path d="M5.54657747,10.4009027 C6.75670242,11.3998762 8.30826799,12 10,12 C11.691732,12 13.2432976,11.3998762 14.4534225,10.4009027 C16.6424785,11.4212395 18.3890121,13.2857924 19.6930232,15.9945613 C19.8870254,16.3975539 19.7898309,16.8803651 19.4550072,17.1769001 L19.4550261,17.1769214 C16.9507276,19.3948414 13.7990522,20.5038014 10,20.5038014 C6.20095709,20.5038014 3.04928784,19.3948468 0.544992243,17.1769377 C0.210149418,16.8803868 0.112949333,16.3975488 0.306962651,15.994534 L0.306984764,15.9945446 C1.61099508,13.2857847 3.35752598,11.4212374 5.54657747,10.4009027 Z" id="Combined-Shape" fill-rule="nonzero"></path>
            <path d="M10,10 C12.7614237,10 15,7.76142375 15,5 C15,2.23857625 12.7614237,0 10,0 C7.23857625,0 5,2.23857625 5,5 C5,7.76142375 7.23857625,10 10,10 Z" id="Path"></path>
        </g>
    </g>
</svg>